<?xml version="1.0" standalone="no"?>
<!DOCTYPE svg PUBLIC "-//W3C//DTD SVG 20010904//EN"
 "http://www.w3.org/TR/2001/REC-SVG-20010904/DTD/svg10.dtd">
<svg version="1.0" xmlns="http://www.w3.org/2000/svg"
 width="512.000000pt" height="512.000000pt" viewBox="0 0 512.000000 512.000000"
 preserveAspectRatio="xMidYMid meet">
<metadata>
Created by potrace 1.14, written by Peter Selinger 2001-2017
</metadata>
<g transform="translate(0.000000,512.000000) scale(0.100000,-0.100000)"
fill="#000000" stroke="none">
<path d="M2749 5097 c-77 -32 -100 -50 -205 -158 -166 -172 -278 -376 -349
-631 l-15 -56 -93 48 c-156 82 -422 180 -488 180 -44 0 -93 -36 -103 -75 -6
-22 23 -231 40 -291 5 -18 -3 -24 -58 -44 -92 -33 -336 -151 -425 -206 -598
-367 -958 -887 -1038 -1500 -135 -1030 654 -1999 1858 -2283 228 -53 423 -75
687 -75 264 0 459 22 687 75 1007 237 1745 962 1858 1826 46 351 -15 714 -176
1039 -208 424 -565 770 -1039 1010 l-110 55 19 37 c37 73 45 114 28 154 -21
49 -53 64 -188 84 -87 12 -155 15 -284 11 -193 -6 -307 -30 -443 -92 -41 -19
-76 -35 -78 -35 -2 0 6 21 17 47 32 75 101 171 199 278 111 120 143 180 148
280 7 133 -72 264 -191 316 -79 34 -186 37 -258 6z m-922 -918 c99 -39 268
-127 289 -150 14 -15 17 -46 18 -179 l1 -162 33 -29 32 -29 251 0 c218 0 253
2 276 17 36 24 53 71 53 152 l0 71 52 41 c54 42 142 90 212 116 131 47 331 73
450 59 l58 -8 -38 -40 c-78 -79 -219 -146 -389 -183 -88 -19 -118 -39 -135
-91 -9 -25 -8 -40 3 -66 12 -29 101 -118 222 -222 l30 -25 -40 -1 c-60 0 -229
26 -319 50 -168 43 -203 23 -241 -140 -24 -106 -85 -228 -145 -292 l-50 -53
-68 71 c-79 81 -133 157 -212 298 -77 139 -77 138 -268 149 -86 4 -164 10
-172 13 -9 3 15 22 62 49 133 78 154 126 98 226 -56 100 -93 183 -121 278 -29
96 -33 111 -24 111 2 0 39 -14 82 -31z"/>
</g>
</svg>
